# xmcd
#
# Track frame offsets:
#	187
#	22055
#	50195
#	72597
#	86860
#	101432
#	118230
#	126975
#	143120
#	165022
#	184805
#	207960
#	226005
#
# Disc length: 3380 seconds
#
# Revision: 2
# Processed by: cddbd v1.4b41PL1 Copyright (c) Steve Scherf et al.
# Submitted via: audiograbber 1.80
#
DISCID=bb0d320d
DTITLE=Nightnoise - island of hope and tears
DYEAR=1900
DGENRE=
TTITLE0=Island Of Hope And Tears
TTITLE1=The Cricket's Wicket
TTITLE2=Bleu
TTITLE3=At The Races
TTITLE4=Night In That Land
TTITLE5=Hugh
TTITLE6=Fionnghuala(Mouth Music)
TTITLE7=Forgotten Carnival
TTITLE8=Bring Me Back A Song
TTITLE9=Wiggy Wiggy
TTITLE10=End Of The Evening
TTITLE11=Toys Not Ties
TTITLE12=Hourgrass
EXTD=
EXTT0=
EXTT1=
EXTT2=
EXTT3=
EXTT4=
EXTT5=
EXTT6=
EXTT7=
EXTT8=
EXTT9=
EXTT10=
EXTT11=
EXTT12=
PLAYORDER=
